<?xml version="1.0" encoding="utf-8"?>
<!-- Generator: Adobe Illustrator 23.0.2, SVG Export Plug-In . SVG Version: 6.00 Build 0)  -->
<svg version="1.1" id="Calque_1" xmlns:sketch="http://www.bohemiancoding.com/sketch/ns"
	 xmlns="http://www.w3.org/2000/svg" xmlns:xlink="http://www.w3.org/1999/xlink" x="0px" y="0px" viewBox="0 0 46 46"
	 style="enable-background:new 0 0 46 46;" xml:space="preserve">
<style type="text/css">
	.st0{fill-rule:evenodd;clip-rule:evenodd;fill:#4285F4;}
	.st1{fill-rule:evenodd;clip-rule:evenodd;fill:#34A853;}
	.st2{fill-rule:evenodd;clip-rule:evenodd;fill:#FBBC05;}
	.st3{fill-rule:evenodd;clip-rule:evenodd;fill:#EA4335;}
	.st4{fill:none;}
</style>
<g id="logo_googleg_48dp" transform="translate(15.000000, 15.000000)" sketch:type="MSLayerGroup">
	<path id="Shape" sketch:type="MSShapeGroup" class="st0" d="M23.8,8.4c0-1.2-0.1-2.3-0.3-3.4H8v6.4h8.8c-0.4,2.1-1.5,3.8-3.3,5v4.1
		h5.3C22,17.6,23.8,13.4,23.8,8.4L23.8,8.4z"/>
	<path sketch:type="MSShapeGroup" class="st1" d="M8,24.4c4.4,0,8.2-1.5,10.9-4l-5.3-4.1c-1.5,1-3.4,1.6-5.6,1.6
		c-4.3,0-7.9-2.9-9.2-6.8h-5.5v4.3C-4,20.8,1.6,24.4,8,24.4L8,24.4z"/>
	<path sketch:type="MSShapeGroup" class="st2" d="M-1.2,11.1c-0.3-1-0.5-2-0.5-3.1s0.2-2.1,0.5-3.1V0.6h-5.5C-7.8,2.8-8.4,5.3-8.4,8
		s0.6,5.2,1.7,7.4L-1.2,11.1L-1.2,11.1z"/>
	<path sketch:type="MSShapeGroup" class="st3" d="M8-1.9c2.4,0,4.6,0.8,6.3,2.5L19-4.2c-2.8-2.7-6.6-4.3-11-4.3
		C1.6-8.4-4-4.8-6.7,0.6l5.5,4.3C0.1,1,3.7-1.9,8-1.9L8-1.9z"/>
	<path sketch:type="MSShapeGroup" class="st4" d="M-8.4-8.4h32.9v32.9H-8.4V-8.4z"/>
</g>
</svg>
