<svg xmlns="http://www.w3.org/2000/svg" viewBox="0 0 3500 3500">
    <rect x="500" y="500" width="2500" height="2500" fill="none" stroke="#000000" stroke-width="200"/>

    <!-- Telegram paper plane -->
    <path d="M2300 1000 L1000 1600 L1400 2000 L2300 1000" fill="none" stroke="#000000" stroke-width="200"/>
    <line x1="1400" y1="2000" x2="1700" y2="1850" stroke="#000000" stroke-width="150"/>

    <!-- Chat bubbles -->
    <path d="M800 2200 Q800 1800 1200 1800 H2000 Q2400 1800 2400 2200 V2600 Q2400 3000 2000 3000 H1200 Q800 3000 800 2600 Z" fill="none" stroke="#000000" stroke-width="150"/>
    <circle cx="1300" cy="2400" r="100" fill="#000000"/>
    <circle cx="1700" cy="2400" r="100" fill="#000000"/>
    <circle cx="2100" cy="2400" r="100" fill="#000000"/>

    <!-- Command symbols -->
    <path d="M850 800 L1150 1100 L850 1400" fill="none" stroke="#000000" stroke-width="150" stroke-linecap="round" stroke-linejoin="round"/>
    <path d="M2650 800 L2350 1100 L2650 1400" fill="none" stroke="#000000" stroke-width="150" stroke-linecap="round" stroke-linejoin="round"/>
    <line x1="1150" y1="1100" x2="2350" y2="1100" stroke="#000000" stroke-width="150" stroke-linecap="round"/>
</svg>