<svg xmlns="http://www.w3.org/2000/svg" viewBox="0 0 60 60"><title>connect 1350</title><g id="Calque_2" data-name="Calque 2"><g id="Layer_1" data-name="Layer 1"><path d="M0,20A10,10,0,0,0,3,25.89l6.75,6.8c3.42,3.42,8.77,4.25,11.55,1.47l.71-.71L9.62,21.13a2,2,0,0,1,0-2.79l8.77-8.77a1.94,1.94,0,0,1,2.79,0L33.45,22l.71-.71c2.78-2.78,2-8.13-1.47-11.55L25.9,3C22.47-.44,17.42-1,14.64,1.77L1.77,14.64A6.44,6.44,0,0,0,.05,20Zm18.71,4.26a3.13,3.13,0,0,0,.91,2.28L33.45,40.34a3.21,3.21,0,0,0,4.56,0L40.34,38a3.21,3.21,0,0,0,0-4.56L26.55,19.66a3.21,3.21,0,0,0-4.56,0L19.66,22A3.15,3.15,0,0,0,18.75,24.27Zm5.47,18.4a10.35,10.35,0,0,0,3.09,7.6L34.11,57c3.42,3.42,8.47,4,11.25,1.21L58.23,45.36C61,42.58,60.44,37.53,57,34.11l-6.75-6.8c-3.42-3.42-8.77-4.25-11.55-1.47l-.71.71L50.38,38.87a2,2,0,0,1,0,2.79l-8.77,8.77a2,2,0,0,1-2.79,0L26.55,38l-.71.71a5.86,5.86,0,0,0-1.62,4Z" style="fill:#7bc576"/></g></g></svg>