<svg xmlns="http://www.w3.org/2000/svg" viewBox="0 0 55 55"><title>disconnect 1350</title><g id="Calque_2" data-name="Calque 2"><g id="Layer_1" data-name="Layer 1"><path d="M14.51,42,6.05,50.47a1.11,1.11,0,0,1-.76.3,1.16,1.16,0,0,1-.76-.3,1.09,1.09,0,0,1-.3-.76,1.11,1.11,0,0,1,.3-.76L13,40.49A1.08,1.08,0,0,1,14.51,42Zm5.59,1.36V53.94a1.06,1.06,0,1,1-2.12,0V43.37a1,1,0,0,1,.3-.76,1.11,1.11,0,0,1,1.52,0A1,1,0,0,1,20.1,43.37ZM12.69,36a1,1,0,0,1-.3.76,1,1,0,0,1-.76.3H1.06a1.06,1.06,0,1,1,0-2.12H11.63a1,1,0,0,1,.76.3A1,1,0,0,1,12.69,36Zm41.78,4.23a9,9,0,0,1-2.81,6.71L46.8,51.73a9.54,9.54,0,0,1-13.45-.07l-11-11.07a10,10,0,0,1-1.39-1.85l7.9-.6,9,9.06a3.1,3.1,0,0,0,2.24.91,3,3,0,0,0,2.25-.88l4.86-4.82a3,3,0,0,0,.93-2.22,3.06,3.06,0,0,0-.93-2.25l-9.06-9.08.6-7.9a9.55,9.55,0,0,1,1.85,1.38l11.1,11.11A9.28,9.28,0,0,1,54.47,40.19ZM34.08,16.26l-7.9.6-9-9.06a3,3,0,0,0-2.24-.92,3.17,3.17,0,0,0-2.25.89L7.8,12.59a3,3,0,0,0-.92,2.22,3.06,3.06,0,0,0,.92,2.25l9.06,9.05L16.26,34a9.55,9.55,0,0,1-1.85-1.38L3.31,21.55A9.28,9.28,0,0,1,.53,14.81,9,9,0,0,1,3.34,8.1L8.2,3.27A9.11,9.11,0,0,1,14.91.53a9.07,9.07,0,0,1,6.74,2.81l11,11.07A10,10,0,0,1,34.08,16.26ZM55,19a1,1,0,0,1-1.06,1.06H43.37a1,1,0,0,1-.76-.3,1.11,1.11,0,0,1,0-1.52,1,1,0,0,1,.76-.3H53.94A1,1,0,0,1,55,19Zm-18-18V11.63a1,1,0,0,1-.3.76,1.11,1.11,0,0,1-1.52,0,1,1,0,0,1-.3-.76V1.06a1.06,1.06,0,1,1,2.12,0Zm13.45,5L42,14.51a1.11,1.11,0,0,1-1.52,0,1.11,1.11,0,0,1,0-1.52L49,4.53a1.11,1.11,0,0,1,.76-.3,1,1,0,0,1,1.06,1.06A1.11,1.11,0,0,1,50.47,6.05Z" style="fill:#ef5062"/></g></g></svg>